# xmcd
#
# Track frame offsets:
#	150
#	11235
#	23806
#	35328
#	48958
#	58593
#	86540
#	103159
#	115716
#	126116
#	139280
#	150604
#	163932
#	175948
#	187476
#	199766
#	212399
#	225118
#
# Disc length: 3153 seconds
#
# Revision: 0
# Processed by: cddbd v1.5.2PL0 Copyright (c) Steve Scherf et al.
# Submitted via: EZCDAudioConverter 2.2.2.1
#
DISCID=f20c4f12
DTITLE=B.B. King - B B King The Essential Collection CD1
DYEAR=2015
DGENRE=Blues
TTITLE0=B.B Blues
TTITLE1=Ten Long Years
TTITLE2=The Key To My Kingdom
TTITLE3=Three O'clock Blues
TTITLE4=Time To Say Goodbye
TTITLE5=Sweet Sixteen pt 1
TTITLE6=Walking Dr Bill
TTITLE7=Got The Blues
TTITLE8=Fine Looking Woman
TTITLE9=Troubles, Troubles, Troubles
TTITLE10=Shake It Up And Go
TTITLE11=Hully Gully Twist
TTITLE12=Confessin' The Blues
TTITLE13=Did You Ever Love A Woman
TTITLE14=Sugar Mama
TTITLE15=Everyday I Have The Blues
TTITLE16=I Want To Get Married
TTITLE17=Please Accept My Love
EXTD=
EXTT0=
EXTT1=
EXTT2=
EXTT3=
EXTT4=
EXTT5=
EXTT6=
EXTT7=
EXTT8=
EXTT9=
EXTT10=
EXTT11=
EXTT12=
EXTT13=
EXTT14=
EXTT15=
EXTT16=
EXTT17=
PLAYORDER=
